<?xml version="1.0" encoding="UTF-8" standalone="no"?><!DOCTYPE svg PUBLIC "-//W3C//DTD SVG 1.1//EN" "http://www.w3.org/Graphics/SVG/1.1/DTD/svg11.dtd"><svg width="100%" height="100%" viewBox="0 0 1000 1000" version="1.1" xmlns="http://www.w3.org/2000/svg" xmlns:xlink="http://www.w3.org/1999/xlink" xml:space="preserve" xmlns:serif="http://www.serif.com/" style="fill-rule:evenodd;clip-rule:evenodd;stroke-linejoin:round;stroke-miterlimit:2;"><rect id="Artboard1" x="0" y="0" width="1000" height="1000" style="fill:none;"/><g id="Artboard11" serif:id="Artboard1"><g><path d="M306.026,229.434l61.477,35.798l-94.114,55.826l-63.815,-37.161l96.452,-54.463Zm4.589,113.3l94.115,-55.826l54.404,31.68l-91.607,57.286l-56.912,-33.14Zm161.34,93.948l-67.673,-39.406l91.609,-57.286l70.886,41.276l-94.822,55.416Zm37.27,21.81l94.913,-55.47l19.027,11.079c8.981,5.229 20.501,2.189 25.732,-6.792c5.228,-8.979 2.187,-20.499 -6.794,-25.729l-137.214,-79.9c-0.039,-0.022 -0.077,-0.045 -0.116,-0.067l-189.134,-110.133c-5.776,-3.361 -12.903,-3.409 -18.721,-0.125l-134.423,75.905c-5.871,3.316 -9.519,9.52 -9.565,16.262c-0.043,6.741 3.522,12.992 9.35,16.385l194.129,113.043c1.173,0.883 2.434,1.606 3.759,2.187l128.574,74.869c2.979,1.735 6.238,2.559 9.452,2.559c6.478,0 12.784,-3.349 16.278,-9.351c4.917,-8.442 2.52,-19.126 -5.247,-24.722" style="fill: #0963b3;"/><path d="M354.41,187.734l326.463,190.098c2.979,1.736 6.237,2.56 9.452,2.56c6.477,-0 12.784,-3.35 16.28,-9.352c5.227,-8.98 2.187,-20.501 -6.794,-25.73l-298.376,-173.743l91.151,-52.463l42.783,90.83c2.242,4.758 6.372,8.361 11.39,9.936c5.013,1.571 10.464,0.979 15.022,-1.646l59.072,-33.998l168.956,98.383l-51.155,29.444c-9.007,5.184 -12.105,16.688 -6.921,25.695c5.183,9.006 16.69,12.11 25.696,6.92l79.326,-45.656c5.818,-3.35 9.413,-9.546 9.429,-16.26c0.018,-6.715 -3.546,-12.931 -9.348,-16.31l-206.461,-120.221c-5.824,-3.393 -13.016,-3.411 -18.855,-0.048l-50.809,29.243l-42.783,-90.831c-2.242,-4.757 -6.372,-8.358 -11.389,-9.933c-5.015,-1.577 -10.464,-0.981 -15.022,1.644l-137.026,78.868c-5.819,3.35 -9.412,9.546 -9.43,16.262c-0.016,6.715 3.545,12.929 9.349,16.308" style="fill: #0963b3;"/><g><path d="M485.077,890.868l-58.179,-31.706l-12.842,-27.637l0,-346.518c0,-6.62 -3.478,-12.753 -9.159,-16.15l-58.999,-35.291c-8.913,-5.332 -20.473,-2.43 -25.807,6.489c-5.337,8.919 -2.431,20.473 6.489,25.809l49.842,29.813l-0,122.814l-30.524,-18.259c-8.915,-5.328 -20.473,-2.426 -25.807,6.491c-5.337,8.919 -2.431,20.475 6.489,25.809l49.842,29.813l-0,151.598l-37.484,-5.433c-10.294,-1.499 -19.832,5.639 -21.321,15.923c-1.492,10.285 5.637,19.832 15.923,21.321l48.925,7.092l12.917,27.8c1.697,3.654 4.522,6.665 8.061,8.594l63.625,34.676c2.86,1.558 5.944,2.297 8.986,2.297c6.668,0 13.127,-3.551 16.542,-9.816c4.974,-9.126 1.606,-20.555 -7.519,-25.529" style="fill: #0963b3;"/><path d="M288.623,562.559l-127.778,-79.375l0,-156.205c0,-10.394 -8.424,-18.818 -18.817,-18.818c-10.391,0 -18.817,8.424 -18.817,18.818l-0,377.416c-0,10.395 8.426,18.817 18.817,18.817c10.393,-0 18.817,-8.422 18.817,-18.817l0,-176.907l99.031,61.519l-0,135.482l-30.029,-47.346c-5.566,-8.779 -17.195,-11.377 -25.968,-5.813c-8.776,5.565 -11.379,17.193 -5.813,25.967l64.737,102.075c3.514,5.543 9.565,8.742 15.89,8.742c1.745,-0 3.51,-0.244 5.247,-0.749c8.04,-2.335 13.57,-9.7 13.57,-18.071l0,-210.752c0,-6.507 -3.359,-12.552 -8.887,-15.983" style="fill: #0963b3;"/><path d="M202.988,482.971c4.293,-0 8.611,-1.462 12.144,-4.453l55.692,-47.12c7.933,-6.713 8.921,-18.588 2.21,-26.521c-6.715,-7.933 -18.587,-8.925 -26.52,-2.21l-55.69,47.122c-7.933,6.713 -8.923,18.586 -2.21,26.519c3.722,4.399 9.03,6.663 14.374,6.663" style="fill: #0963b3;"/><path d="M466.443,712.767c10.393,0 18.818,-8.424 18.818,-18.817l-0,-155.124c-0,-10.395 -8.425,-18.817 -18.818,-18.817c-10.393,-0 -18.817,8.422 -18.817,18.817l0,155.124c0,10.393 8.424,18.817 18.817,18.817" style="fill: #0963b3;"/><path d="M447.626,802.743c0,10.393 8.424,18.818 18.817,18.818c10.393,-0 18.818,-8.425 18.818,-18.818l-0,-18.948c-0,-10.393 -8.425,-18.817 -18.818,-18.817c-10.393,-0 -18.817,8.424 -18.817,18.817l0,18.948Z" style="fill: #0963b3;"/></g><g><path d="M851.235,358.748l-0,93.07l-301.539,174.092l0,-93.068l301.539,-174.094Zm-320.356,339.31c10.393,-0 18.817,-8.424 18.817,-18.818l0,-9.872l301.539,-174.094l-0,3.792c-0,10.391 8.424,18.817 18.817,18.817c10.393,-0 18.817,-8.426 18.817,-18.817l0,-172.912c0,-6.722 -3.587,-12.934 -9.408,-16.296c-5.822,-3.361 -12.996,-3.361 -18.818,0l-339.173,195.823c-5.823,3.362 -9.409,9.573 -9.409,16.296l0,157.263c0,10.394 8.425,18.818 18.818,18.818" style="fill: #0963b3;"/><path d="M891.266,594.03c-5.196,-8.999 -16.704,-12.083 -25.707,-6.889l-141.361,81.616l-0,-27.921l118.099,-68.184c9.001,-5.198 12.085,-16.706 6.889,-25.707c-5.195,-8.996 -16.703,-12.079 -25.706,-6.887l-251.055,144.947c-9,5.197 -12.082,16.704 -6.887,25.704c3.484,6.038 9.811,9.413 16.314,9.413c3.191,-0 6.427,-0.814 9.391,-2.524l95.32,-55.033l0,27.921l-160.177,92.478c-9,5.197 -12.084,16.704 -6.887,25.704c3.484,6.038 9.811,9.413 16.314,9.413c3.191,-0 6.427,-0.814 9.391,-2.524l141.359,-81.613l0,58.7c0,10.393 8.424,18.817 18.817,18.817c10.394,0 18.818,-8.424 18.818,-18.817l-0,-80.429l160.179,-92.478c9,-5.198 12.084,-16.706 6.889,-25.707" style="fill: #0963b3;"/><path d="M810.677,719.613l-53.277,-4.003c-10.359,-0.752 -19.397,6.99 -20.176,17.354c-0.778,10.363 6.99,19.396 17.356,20.176l53.277,4.003c0.479,0.036 0.956,0.054 1.43,0.054c9.753,-0 18.003,-7.525 18.746,-17.407c0.776,-10.364 -6.992,-19.396 -17.356,-20.177" style="fill: #0963b3;"/><path d="M629.551,793.595l-42.012,44.68c-7.119,7.57 -6.753,19.481 0.818,26.598c3.633,3.417 8.266,5.108 12.887,5.108c5.009,0 10.01,-1.987 13.713,-5.926l42.012,-44.679c7.119,-7.572 6.752,-19.48 -0.818,-26.599c-7.573,-7.121 -19.483,-6.753 -26.6,0.818" style="fill: #0963b3;"/></g><path d="M631.126,219.713c-8.801,-5.521 -20.416,-2.861 -25.938,5.944c-5.523,8.804 -2.861,20.418 5.944,25.94l82.511,51.746c3.108,1.949 6.564,2.878 9.981,2.878c6.261,-0 12.386,-3.126 15.957,-8.823c5.522,-8.804 2.862,-20.417 -5.944,-25.94l-82.511,-51.745Z" style="fill: #0963b3;"/></g></g></svg>