<svg width="100%" height="100%" viewBox="0 0 1000 1000" version="1.1" xmlns="http://www.w3.org/2000/svg"
   xmlns:xlink="http://www.w3.org/1999/xlink" xml:space="preserve" xmlns:serif="http://www.serif.com/"
   style="fill-rule:evenodd;clip-rule:evenodd;stroke-linejoin:round;stroke-miterlimit:2;">
   <rect id="Artboard1" x="0" y="0" width="1000" height="1000" style="fill:none;" />
   <g id="Layer-1" serif:id="Layer 1">
      <g>
         <path
            d="M818.985,366.9l-0,83.894l-271.807,156.926l0,-83.891l271.807,-156.929Zm-288.769,305.854c9.368,0 16.962,-7.593 16.962,-16.962l0,-8.898l271.807,-156.929l-0,3.418c-0,9.366 7.593,16.962 16.962,16.962c9.368,-0 16.962,-7.596 16.962,-16.962l-0,-155.862c-0,-6.06 -3.234,-11.66 -8.481,-14.689c-5.248,-3.03 -11.715,-3.03 -16.962,-0l-305.731,176.514c-5.249,3.03 -8.481,8.629 -8.481,14.689l0,141.757c0,9.369 7.594,16.962 16.962,16.962"
            style="fill:#0963b3;" />
         <path
            d="M855.069,578.984c-4.683,-8.112 -15.057,-10.892 -23.172,-6.21l-127.423,73.568l-0,-25.168l106.455,-61.461c8.113,-4.685 10.893,-15.058 6.21,-23.172c-4.684,-8.109 -15.057,-10.887 -23.172,-6.208l-226.301,130.655c-8.113,4.685 -10.891,15.057 -6.208,23.17c3.141,5.443 8.843,8.485 14.705,8.485c2.876,-0 5.794,-0.734 8.465,-2.275l85.922,-49.607l-0,25.168l-144.384,83.36c-8.113,4.685 -10.893,15.056 -6.208,23.17c3.141,5.442 8.844,8.484 14.706,8.484c2.876,0 5.793,-0.734 8.464,-2.275l127.422,-73.566l-0,52.912c-0,9.369 7.594,16.962 16.962,16.962c9.368,0 16.962,-7.593 16.962,-16.962l-0,-72.499l144.385,-83.359c8.113,-4.686 10.893,-15.059 6.21,-23.172"
            style="fill:#0963b3;" />
         <path
            d="M802.949,682.054l-48.024,-3.609c-9.338,-0.678 -17.485,6.301 -18.187,15.643c-0.701,9.341 6.301,17.483 15.645,18.186l48.023,3.609c0.432,0.032 0.863,0.048 1.289,0.048c8.792,-0 16.228,-6.783 16.898,-15.691c0.7,-9.341 -6.303,-17.483 -15.644,-18.186"
            style="fill:#0963b3;" />
         <path
            d="M624.415,744.71l-37.87,40.275c-6.417,6.824 -6.087,17.56 0.737,23.975c3.275,3.08 7.451,4.605 11.617,4.605c4.515,-0 9.023,-1.791 12.36,-5.342l37.87,-40.273c6.417,-6.826 6.087,-17.56 -0.737,-23.977c-6.826,-6.419 -17.562,-6.087 -23.977,0.737"
            style="fill:#0963b3;" />
         <path
            d="M590.182,560.186c-7.878,4.549 -17.966,1.846 -22.515,-6.032c-4.549,-7.877 -1.846,-17.966 6.032,-22.515l196.711,-113.583c7.878,-4.549 17.966,-1.846 22.515,6.032c4.549,7.877 1.846,17.966 -6.032,22.515l-196.711,113.583Z" style="fill:#0963b3;" />
         <path
            d="M326.735,246.411l55.416,32.269l-84.835,50.321l-57.522,-33.497l86.941,-49.093Zm4.137,102.128l84.835,-50.321l49.04,28.557l-82.575,51.637l-51.3,-29.873Zm145.432,84.685l-61.001,-35.52l82.576,-51.637l63.897,37.205l-85.472,49.952Zm33.595,19.66l85.554,-50l17.152,9.986c8.095,4.713 18.479,1.973 23.195,-6.123c4.711,-8.093 1.971,-18.477 -6.125,-23.191l-123.684,-72.022c-0.036,-0.02 -0.07,-0.041 -0.106,-0.061l-170.485,-99.274c-5.206,-3.029 -11.63,-3.072 -16.874,-0.112l-121.169,68.421c-5.292,2.989 -8.581,8.581 -8.622,14.659c-0.039,6.075 3.174,11.71 8.427,14.769l174.989,101.896c1.057,0.797 2.194,1.448 3.388,1.972l115.897,67.487c2.685,1.564 5.622,2.306 8.52,2.306c5.838,0 11.523,-3.019 14.673,-8.429c4.431,-7.609 2.271,-17.24 -4.73,-22.284"
            style="fill:#0963b3;" />
         <path
            d="M370.349,208.823l294.273,171.355c2.685,1.564 5.622,2.306 8.52,2.306c5.839,0 11.524,-3.019 14.675,-8.429c4.712,-8.095 1.971,-18.479 -6.124,-23.193l-268.956,-156.612l82.164,-47.29l38.564,81.874c2.021,4.289 5.744,7.537 10.267,8.956c4.519,1.416 9.432,0.882 13.541,-1.484l53.248,-30.645l152.296,88.682l-46.111,26.541c-8.119,4.673 -10.911,15.043 -6.239,23.161c4.673,8.119 15.045,10.916 23.163,6.238l71.505,-41.155c5.244,-3.019 8.484,-8.604 8.498,-14.656c0.016,-6.053 -3.196,-11.656 -8.425,-14.702l-186.105,-108.367c-5.249,-3.058 -11.732,-3.075 -16.996,-0.043l-45.799,26.359l-38.564,-81.874c-2.021,-4.289 -5.744,-7.535 -10.266,-8.954c-4.521,-1.422 -9.433,-0.884 -13.541,1.481l-123.515,71.092c-5.246,3.02 -8.485,8.605 -8.501,14.659c-0.014,6.053 3.196,11.654 8.428,14.7"
            style="fill:#0963b3;" />
         <path
            d="M615.776,237.899c-7.933,-4.977 -18.403,-2.579 -23.381,5.358c-4.978,7.936 -2.578,18.404 5.358,23.382l74.376,46.644c2.801,1.757 5.917,2.594 8.997,2.594c5.644,-0 11.164,-2.817 14.383,-7.952c4.978,-7.937 2.58,-18.405 -5.358,-23.383l-74.375,-46.643Z"
            style="fill:#0963b3;" />
         <path
            d="M474.849,836.187l-52.443,-28.58l-11.575,-24.913l0,-312.351c0,-5.967 -3.135,-11.495 -8.256,-14.557l-53.182,-31.811c-8.034,-4.807 -18.454,-2.191 -23.263,5.849c-4.81,8.04 -2.19,18.454 5.85,23.264l44.927,26.873l0,110.705l-27.514,-16.459c-8.036,-4.803 -18.454,-2.187 -23.263,5.851c-4.81,8.04 -2.19,18.457 5.85,23.265l44.927,26.873l0,136.651l-33.788,-4.898c-9.279,-1.352 -17.876,5.083 -19.219,14.353c-1.344,9.271 5.082,17.876 14.354,19.219l44.101,6.392l11.643,25.059c1.53,3.294 4.076,6.008 7.267,7.747l57.351,31.257c2.578,1.405 5.358,2.071 8.1,2.071c6.01,-0 11.833,-3.202 14.911,-8.849c4.483,-8.226 1.448,-18.528 -6.778,-23.011"
            style="fill:#0963b3;" />
         <path
            d="M302.27,544.754l-115.178,-71.549l-0,-140.803c-0,-9.369 -7.594,-16.962 -16.962,-16.962c-9.367,-0 -16.962,7.593 -16.962,16.962l-0,340.202c-0,9.37 7.595,16.962 16.962,16.962c9.368,0 16.962,-7.592 16.962,-16.962l-0,-159.463l89.266,55.453l-0,122.124l-27.068,-42.678c-5.017,-7.913 -15.5,-10.256 -23.407,-5.24c-7.912,5.017 -10.258,15.497 -5.241,23.407l58.355,92.01c3.167,4.996 8.622,7.88 14.323,7.88c1.573,-0 3.163,-0.22 4.729,-0.675c7.248,-2.105 12.233,-8.744 12.233,-16.289l-0,-189.972c-0,-5.865 -3.029,-11.314 -8.012,-14.407"
            style="fill:#0963b3;" />
         <path
            d="M225.079,473.013c3.869,0 7.762,-1.318 10.947,-4.014l50.2,-42.474c7.151,-6.051 8.042,-16.755 1.993,-23.906c-6.053,-7.15 -16.755,-8.045 -23.906,-1.992l-50.198,42.476c-7.151,6.051 -8.044,16.753 -1.993,23.904c3.355,3.965 8.14,6.006 12.957,6.006"
            style="fill:#0963b3;" />
         <path
            d="M438.694,522.936c0,-9.097 7.385,-16.482 16.482,-16.482c9.097,-0 16.482,7.385 16.482,16.482l-0,255.282c-0,9.096 -7.385,16.482 -16.482,16.482c-9.097,-0 -16.482,-7.386 -16.482,-16.482l0,-255.282Z" style="fill:#0963b3;" />
         <path
            d="M508.241,47.926l392.881,226.83c5.1,2.944 8.241,8.386 8.241,14.274l0,421.94c0,5.888 -3.141,11.33 -8.241,14.274l-392.881,226.83c-5.1,2.944 -11.382,2.944 -16.482,-0l-392.881,-226.83c-5.1,-2.944 -8.241,-8.386 -8.241,-14.274l-0,-421.94c-0,-5.888 3.141,-11.33 8.241,-14.274l392.881,-226.83c5.1,-2.944 11.382,-2.944 16.482,0Zm-8.241,33.306l-376.399,217.314l-0,402.908l376.399,217.314l376.399,-217.314l0,-402.908l-376.399,-217.314Z" style="fill:#0963b3;" />
      </g>
   </g>
</svg>