<?xml version="1.0" encoding="UTF-8" standalone="no"?><!DOCTYPE svg PUBLIC "-//W3C//DTD SVG 1.1//EN" "http://www.w3.org/Graphics/SVG/1.1/DTD/svg11.dtd"><svg width="100%" height="100%" viewBox="0 0 2250 2250" version="1.1" xmlns="http://www.w3.org/2000/svg" xmlns:xlink="http://www.w3.org/1999/xlink" xml:space="preserve" xmlns:serif="http://www.serif.com/" style="fill-rule:evenodd;clip-rule:evenodd;stroke-linejoin:round;stroke-miterlimit:2;"><path d="M267.735,1020.89l126.068,-0l126.069,126.068l-0,126.069l-126.069,-0l0,-126.069l-126.068,0l0,252.137l252.137,-0l-0,126.068l-252.137,0l-126.068,-126.068l-0,-252.137l126.068,-126.068Zm1159.83,-0l126.068,-0l126.069,126.068l-0,252.137l-126.069,126.068l-126.068,0l-126.068,-126.068l-0,-252.137l126.068,-126.068Zm0,126.068l0,252.137l126.068,-0l0,-252.137l-126.068,0Zm428.633,-126.068l126.068,-0l126.068,126.068l-126.068,126.069l-0,-126.069l-126.068,0l-0,252.137l252.136,-0l-126.068,126.068l-126.068,0l-126.069,-126.068l0,-252.137l126.069,-126.068Zm-1285.9,504.273l0,-756.41l126.069,0l-0,252.137l126.068,-0l126.068,126.068l0,378.205l-126.068,0l-0,-378.205l-126.068,0l-0,378.205l-126.069,0Zm428.633,-630.342l-126.069,0l0,-126.068l252.137,-0l-0,630.342l126.068,-0l0,126.068l-126.068,0l-126.068,-126.068l-0,-504.274Z"/></svg>